<svg width="513" height="513" viewBox="0 0 513 513" fill="none" xmlns="http://www.w3.org/2000/svg">
<path fill-rule="evenodd" clip-rule="evenodd" d="M460.84 101.063C421.137 50.6527 393.858 30.2831 333.84 11.5626C225.799 -10.7642 177.937 2.25869 105.34 51.0626C13.5343 131.038 -5.72881 184.428 2.83988 291.063C26.9292 403.931 64.9563 441.637 149.34 491.563C274.939 531.092 337.872 514.934 440.34 436.563C488.785 373.01 507.479 337.652 511.84 275.563L313.34 263.563C314.321 247.225 310.468 238.319 301.34 222.563L460.84 101.063Z" fill="black"/>
<path d="M460.84 101.063L301.34 222.563C310.468 238.319 314.321 247.225 313.34 263.563L511.84 275.563M460.84 101.063C502.566 161.221 513.204 199.645 511.84 275.563M460.84 101.063C421.137 50.6527 393.858 30.2831 333.84 11.5626C225.799 -10.7642 177.937 2.25869 105.34 51.0626C13.5343 131.038 -5.72881 184.428 2.83988 291.063C26.9292 403.931 64.9563 441.637 149.34 491.563C274.939 531.092 337.872 514.934 440.34 436.563C488.785 373.01 507.479 337.652 511.84 275.563" stroke="black"/>
</svg>
