<svg width="622" height="622" viewBox="0 0 622 622" fill="none" xmlns="http://www.w3.org/2000/svg">
<g filter="url(#filter0_f_458_19)">
<circle cx="311" cy="311" r="308" fill="url(#paint0_linear_458_19)"/>
<circle cx="311" cy="311" r="298" stroke="black" stroke-width="20"/>
</g>
<path d="M369.079 554.122C504.581 521.616 588.419 386.848 556.336 253.109C524.253 119.371 388.398 37.3059 252.896 69.8121C117.393 102.318 33.5554 237.086 65.6385 370.825C97.7215 504.563 233.576 586.628 369.079 554.122Z" fill="black" fill-opacity="0.88"/>
<g filter="url(#filter1_f_458_19)">
<path d="M368.646 554.312C355.627 557.527 339.493 560.414 320.871 561.349C300.816 562.365 283.338 560.842 269.384 558.682C280.969 490.244 292.555 421.807 304.14 353.38L319.916 351.27L368.636 554.312H368.646Z" fill="url(#paint1_linear_458_19)"/>
<path d="M367.432 553.58C354.637 556.686 338.907 559.442 320.821 560.351L320.821 560.351C301.322 561.338 284.27 559.916 270.539 557.847C282.027 489.986 293.515 422.124 305.003 354.273L319.154 352.38L367.432 553.58Z" stroke="black" stroke-width="2"/>
</g>
<g filter="url(#filter2_f_458_19)">
<path d="M525.456 441.962C519.066 453.099 509.85 466.815 496.791 480.829C483.016 495.599 469.221 506.119 458.114 513.395C417.884 457.648 377.653 401.901 337.423 346.154L347.047 333.463L525.456 441.962Z" fill="url(#paint2_linear_458_19)"/>
<path d="M347.299 334.787L524.102 442.309C517.764 453.238 508.728 466.551 496.06 480.147C482.679 494.495 469.278 504.814 458.364 512.033L338.667 346.168L347.299 334.787Z" stroke="black" stroke-width="2"/>
</g>
<g filter="url(#filter3_f_458_19)">
<path d="M557.277 255.133C560.541 267.554 563.607 283.798 564.134 302.937C564.692 323.122 562.253 340.301 559.446 353.28C491.666 341.814 423.885 330.338 356.105 318.872L354.055 303.087L557.287 255.143L557.277 255.133Z" fill="url(#paint3_linear_458_19)"/>
<path d="M355.163 303.853L556.558 256.342C559.713 268.578 562.623 284.403 563.135 302.965C563.676 322.573 561.377 339.331 558.669 352.134C525.093 346.455 491.518 340.772 457.943 335.09L457.921 335.087C424.281 329.393 390.641 323.7 357.001 318.01L355.163 303.853Z" stroke="black" stroke-width="2"/>
</g>
<g filter="url(#filter4_f_458_19)">
<path d="M440.596 97.3882C451.922 103.43 465.926 112.218 480.328 124.839C495.517 138.146 506.465 151.613 514.069 162.491C459.596 204.424 405.113 246.356 350.64 288.288L337.661 279.062L440.596 97.3882Z" fill="url(#paint4_linear_458_19)"/>
<path d="M440.984 98.7313C452.103 104.728 465.698 113.348 479.669 125.591L480.328 124.839L479.669 125.591C494.424 138.518 505.158 151.596 512.701 162.283C485.729 183.045 458.73 203.826 431.731 224.608C404.684 245.426 377.637 266.245 350.616 287.044L338.976 278.769L440.984 98.7313Z" stroke="black" stroke-width="2"/>
</g>
<g filter="url(#filter5_f_458_19)">
<path d="M256.227 68.3744C267.991 64.8112 284.065 61.2081 303.364 60.5313C323.977 59.8048 341.246 62.6613 353.657 65.687C341.564 133.358 329.461 201.029 317.368 268.71L301.563 270.611C286.454 203.199 271.345 135.787 256.227 68.3744Z" fill="url(#paint5_linear_458_19)"/>
<path d="M303.399 61.5307L303.4 61.5307C323.4 60.8257 340.235 63.5124 352.507 66.4384C347.014 97.1795 341.518 127.921 336.022 158.663C329.519 195.042 323.015 231.423 316.514 267.806L302.341 269.51C287.366 202.695 272.391 135.88 257.406 69.0644C269.023 65.6091 284.687 62.1869 303.399 61.5307Z" stroke="black" stroke-width="2"/>
</g>
<g filter="url(#filter6_f_458_19)">
<path d="M96.2998 182.008C102.58 170.811 111.677 157.006 124.606 142.883C138.242 127.983 151.937 117.333 162.975 109.958C203.723 165.327 244.471 220.686 285.229 276.055L275.724 288.835L96.2998 182.008Z" fill="url(#paint6_linear_458_19)"/>
<path d="M125.344 143.558L125.344 143.558C138.59 129.084 151.893 118.64 162.738 111.322C203.15 166.235 243.563 221.139 283.985 276.052L275.46 287.514L97.6506 181.649C103.882 170.66 112.801 157.26 125.344 143.558Z" stroke="black" stroke-width="2"/>
</g>
<g filter="url(#filter7_f_458_19)">
<path d="M65.5756 369.573C62.1716 357.191 58.9369 340.987 58.2003 321.848C57.424 301.673 59.6734 284.464 62.3408 271.455C130.241 282.194 198.141 292.924 266.051 303.663L268.27 319.429L65.5756 369.573Z" fill="url(#paint7_linear_458_19)"/>
<path d="M267.154 318.675L66.2837 368.367C62.9911 356.169 59.9141 340.377 59.1996 321.809C58.4454 302.211 60.5602 285.424 63.1306 272.592C99.6813 278.373 136.232 284.152 172.784 289.93C203.576 294.798 234.369 299.666 265.163 304.535L267.154 318.675Z" stroke="black" stroke-width="2"/>
</g>
<g filter="url(#filter8_f_458_19)">
<path d="M175.914 524.065C164.807 517.625 151.131 508.339 137.187 495.211C122.486 481.366 112.026 467.522 104.81 456.384C160.746 416.422 216.692 376.461 272.628 336.509L285.269 346.194L175.914 524.075V524.065Z" fill="url(#paint8_linear_458_19)"/>
<path d="M175.578 522.712C164.678 516.324 151.402 507.221 137.873 494.483C123.592 481.034 113.332 467.585 106.17 456.641C161.646 417.008 217.132 377.376 272.608 337.753L283.944 346.439L175.578 522.712Z" stroke="black" stroke-width="2"/>
</g>
<path d="M311.646 367.902C341.055 367.902 364.895 344.061 364.895 314.653C364.895 285.244 341.055 261.403 311.646 261.403C282.237 261.403 258.396 285.244 258.396 314.653C258.396 344.061 282.237 367.902 311.646 367.902Z" fill="black"/>
<path d="M307.406 332.719C305.656 332.615 303.979 332.417 302.375 332.125C300.771 331.833 299.458 331.542 298.438 331.25C297.417 330.938 296.781 330.74 296.531 330.656V319.312H302.406L303.375 324.125C303.5 324.167 303.792 324.292 304.25 324.5C304.729 324.688 305.375 324.865 306.188 325.031C307 325.198 307.917 325.281 308.938 325.281C310.979 325.281 312.677 324.885 314.031 324.094C315.406 323.302 316.094 322.188 316.094 320.75C316.094 319.521 315.542 318.552 314.438 317.844C313.333 317.135 311.521 316.354 309 315.5C306.438 314.604 304.323 313.729 302.656 312.875C300.99 312.021 299.552 310.76 298.344 309.094C297.135 307.427 296.531 305.25 296.531 302.562C296.531 299.312 297.51 296.667 299.469 294.625C301.427 292.583 304.073 291.24 307.406 290.594V283.031H314.25V290.344C315.875 290.469 317.427 290.708 318.906 291.062C320.406 291.396 321.604 291.719 322.5 292.031C323.396 292.344 323.969 292.542 324.219 292.625L323.969 303.125H318.469L317.25 298.406C317.25 298.365 316.656 298.198 315.469 297.906C314.281 297.594 313.167 297.438 312.125 297.438C310.125 297.438 308.594 297.812 307.531 298.562C306.469 299.312 305.938 300.281 305.938 301.469C305.938 302.698 306.51 303.677 307.656 304.406C308.802 305.135 310.615 305.927 313.094 306.781C315.698 307.719 317.812 308.604 319.438 309.438C321.062 310.271 322.469 311.5 323.656 313.125C324.844 314.75 325.438 316.812 325.438 319.312C325.438 322.771 324.427 325.625 322.406 327.875C320.385 330.104 317.667 331.583 314.25 332.312V341.344H307.406V332.719Z" fill="url(#paint9_linear_458_19)"/>
<circle cx="308.1" cy="312.82" r="246.288" stroke="black" stroke-width="20"/>
<path d="M449.965 259.741L454.068 257.933L448.524 245.35L445.315 250.196L442.24 247.828L447.244 240.313L450.99 238.663L458.601 255.935L462.562 254.19L464.049 257.565L451.452 263.115L449.965 259.741ZM465.166 232.007C467.063 231.171 468.734 230.907 470.179 231.215C471.629 231.51 472.922 232.312 474.057 233.622C475.191 234.931 476.271 236.749 477.296 239.075C478.88 242.669 479.449 245.679 479.004 248.106C478.556 250.524 476.983 252.327 474.285 253.515C471.606 254.696 469.268 254.673 467.271 253.447C465.279 252.207 463.513 249.838 461.971 246.34C460.405 242.784 459.847 239.814 460.299 237.43C460.751 235.045 462.373 233.237 465.166 232.007ZM466.608 235.743C465.845 236.079 465.341 236.563 465.096 237.194C464.85 237.826 464.852 238.696 465.102 239.804C465.356 240.899 465.874 242.332 466.655 244.105C467.773 246.641 468.802 248.344 469.744 249.216C470.685 250.087 471.704 250.281 472.801 249.798C473.525 249.479 473.999 248.991 474.222 248.335C474.441 247.67 474.419 246.78 474.156 245.667C473.889 244.544 473.365 243.095 472.583 241.322C471.819 239.588 471.13 238.269 470.516 237.367C469.898 236.456 469.283 235.873 468.67 235.619C468.058 235.366 467.37 235.407 466.608 235.743ZM484.04 223.69C485.937 222.855 487.608 222.591 489.053 222.899C490.503 223.193 491.796 223.995 492.931 225.305C494.065 226.615 495.145 228.433 496.17 230.759C497.754 234.353 498.323 237.363 497.879 239.79C497.43 242.207 495.857 244.01 493.159 245.199C490.48 246.379 488.142 246.356 486.145 245.131C484.153 243.891 482.387 241.522 480.845 238.024C479.279 234.468 478.721 231.498 479.173 229.113C479.625 226.729 481.247 224.921 484.04 223.69ZM485.482 227.426C484.719 227.762 484.215 228.246 483.97 228.878C483.724 229.51 483.726 230.38 483.976 231.488C484.23 232.582 484.748 234.016 485.529 235.789C486.647 238.325 487.676 240.028 488.618 240.899C489.56 241.771 490.578 241.965 491.675 241.482C492.399 241.163 492.873 240.675 493.096 240.019C493.315 239.353 493.293 238.464 493.03 237.35C492.763 236.227 492.239 234.779 491.457 233.006C490.693 231.271 490.004 229.953 489.39 229.051C488.772 228.139 488.157 227.557 487.544 227.303C486.932 227.049 486.244 227.09 485.482 227.426Z" fill="white"/>
<path d="M368.322 458.466C371.591 459.808 374.119 460.796 375.906 461.431C377.692 462.065 379.263 462.468 380.617 462.64C381.98 462.806 383.1 462.648 383.976 462.167C384.834 461.695 385.349 461.02 385.52 460.142C385.705 459.268 385.524 458.333 384.978 457.338C384.732 456.891 384.463 456.498 384.17 456.159C383.886 455.816 383.638 455.548 383.425 455.356C383.218 455.173 383.09 455.059 383.041 455.014L380.508 456.05L378.883 453.092L383.984 450.111C384.129 450.245 384.464 450.572 384.987 451.093C385.511 451.613 386.103 452.28 386.764 453.094C387.43 453.916 388.009 454.775 388.5 455.67C389.835 458.098 390.443 460.212 390.327 462.012C390.215 463.82 389.169 465.269 387.187 466.357C385.937 467.044 384.568 467.398 383.082 467.418C381.6 467.448 379.993 467.226 378.259 466.752C376.525 466.279 374.326 465.543 371.663 464.546L376.29 472.968L372.866 474.849L364.899 460.347L368.322 458.466ZM398.861 474.527C399.859 476.344 400.267 477.985 400.087 479.451C399.92 480.922 399.233 482.279 398.028 483.524C396.822 484.769 395.105 486.003 392.878 487.227C389.436 489.118 386.487 489.948 384.03 489.717C381.583 489.481 379.649 488.071 378.23 485.487C376.82 482.922 376.639 480.591 377.686 478.495C378.747 476.402 380.953 474.436 384.303 472.595C387.709 470.724 390.619 469.909 393.034 470.151C395.449 470.393 397.391 471.852 398.861 474.527ZM395.265 476.289C394.863 475.558 394.337 475.098 393.687 474.909C393.036 474.72 392.17 474.798 391.087 475.143C390.019 475.492 388.636 476.133 386.938 477.066C384.51 478.4 382.903 479.574 382.117 480.588C381.331 481.603 381.226 482.635 381.803 483.685C382.184 484.378 382.712 484.808 383.385 484.973C384.067 485.133 384.951 485.033 386.037 484.674C387.133 484.31 388.53 483.662 390.228 482.729C391.889 481.816 393.143 481.014 393.988 480.324C394.842 479.629 395.368 478.965 395.568 478.333C395.767 477.7 395.666 477.019 395.265 476.289Z" fill="white"/>
<path d="M158.087 368.79C156.605 371.998 155.508 374.481 154.797 376.239C154.086 377.996 153.615 379.548 153.386 380.893C153.161 382.248 153.27 383.373 153.713 384.27C154.147 385.147 154.799 385.691 155.67 385.9C156.535 386.122 157.477 385.982 158.494 385.479C158.952 385.253 159.356 385.001 159.707 384.723C160.062 384.454 160.34 384.218 160.541 384.014C160.733 383.814 160.853 383.691 160.899 383.645L159.975 381.069L163 379.573L165.758 384.799C165.617 384.938 165.276 385.258 164.733 385.758C164.191 386.259 163.499 386.822 162.657 387.447C161.807 388.077 160.924 388.618 160.009 389.07C157.525 390.298 155.387 390.815 153.594 390.621C151.792 390.431 150.39 389.323 149.388 387.297C148.756 386.018 148.461 384.635 148.505 383.149C148.54 381.668 148.831 380.071 149.379 378.36C149.927 376.648 150.757 374.483 151.868 371.865L143.254 376.124L141.523 372.623L156.355 365.289L158.087 368.79ZM140.722 398.606C138.864 399.525 137.206 399.863 135.749 399.618C134.287 399.388 132.961 398.644 131.769 397.386C130.577 396.127 129.418 394.359 128.292 392.08C126.551 388.56 125.849 385.578 126.186 383.134C126.528 380.699 128.02 378.828 130.663 377.521C133.287 376.224 135.623 376.144 137.673 377.28C139.717 378.431 141.587 380.719 143.281 384.146C145.003 387.629 145.691 390.572 145.345 392.974C144.999 395.376 143.458 397.254 140.722 398.606ZM139.117 394.938C139.864 394.568 140.346 394.063 140.563 393.421C140.78 392.779 140.74 391.91 140.442 390.814C140.14 389.732 139.559 388.322 138.7 386.585C137.472 384.102 136.368 382.445 135.389 381.616C134.41 380.787 133.383 380.638 132.309 381.169C131.6 381.52 131.148 382.028 130.954 382.694C130.765 383.368 130.826 384.256 131.138 385.357C131.454 386.467 132.042 387.89 132.901 389.627C133.741 391.327 134.488 392.613 135.14 393.487C135.798 394.371 136.438 394.926 137.062 395.152C137.685 395.379 138.37 395.307 139.117 394.938Z" fill="white"/>
<path d="M254.713 172.778L252.672 168.785L240.428 175.042L245.451 177.967L243.264 181.173L235.474 176.609L233.611 172.963L250.418 164.374L248.449 160.52L251.732 158.842L257.996 171.1L254.713 172.778ZM226.152 159.193C225.209 157.347 224.85 155.694 225.074 154.234C225.285 152.769 226.012 151.433 227.254 150.224C228.497 149.016 230.25 147.834 232.513 146.677C236.01 144.89 238.983 144.149 241.431 144.453C243.87 144.763 245.761 146.23 247.102 148.855C248.434 151.461 248.546 153.797 247.436 155.861C246.313 157.921 244.049 159.82 240.645 161.56C237.185 163.328 234.252 164.055 231.846 163.741C229.439 163.427 227.541 161.911 226.152 159.193ZM229.799 157.539C230.179 158.282 230.691 158.757 231.335 158.965C231.98 159.174 232.848 159.122 233.941 158.81C235.019 158.493 236.42 157.894 238.145 157.012C240.613 155.751 242.254 154.625 243.07 153.635C243.886 152.645 244.021 151.617 243.476 150.55C243.116 149.845 242.602 149.4 241.934 149.215C241.257 149.034 240.37 149.107 239.274 149.434C238.168 149.765 236.752 150.372 235.027 151.253C233.339 152.116 232.062 152.88 231.197 153.544C230.322 154.213 229.776 154.861 229.558 155.487C229.34 156.113 229.42 156.797 229.799 157.539ZM216.767 140.827C215.823 138.981 215.464 137.328 215.689 135.868C215.899 134.403 216.626 133.067 217.869 131.859C219.111 130.651 220.864 129.468 223.127 128.312C226.624 126.524 229.597 125.783 232.045 126.088C234.485 126.397 236.375 127.864 237.716 130.489C239.048 133.096 239.16 135.431 238.051 137.495C236.927 139.555 234.664 141.455 231.259 143.194C227.8 144.962 224.866 145.689 222.46 145.375C220.053 145.061 218.155 143.545 216.767 140.827ZM220.414 139.174C220.793 139.916 221.305 140.391 221.95 140.6C222.594 140.808 223.463 140.756 224.555 140.444C225.633 140.127 227.034 139.528 228.76 138.646C231.227 137.385 232.869 136.26 233.684 135.27C234.5 134.279 234.636 133.251 234.091 132.184C233.73 131.479 233.216 131.034 232.548 130.849C231.871 130.669 230.985 130.742 229.888 131.068C228.782 131.399 227.367 132.006 225.641 132.887C223.953 133.75 222.676 134.514 221.811 135.178C220.937 135.848 220.39 136.495 220.172 137.121C219.954 137.748 220.034 138.432 220.414 139.174Z" fill="white"/>
<path d="M424.371 205.885L420.9 209.866L412.36 191.415L407.709 196.75L409.537 199.194L407.412 201.632L402.147 197.043L412.877 184.735L415.479 187.004L424.371 205.885ZM427.823 194.53C427.966 194.461 428.305 194.287 428.839 194.006C429.373 193.711 429.992 193.318 430.696 192.827C431.393 192.329 432.012 191.77 432.553 191.149C433.251 190.348 433.614 189.504 433.641 188.616C433.661 187.721 433.294 186.946 432.541 186.288C431.638 185.501 430.653 185.307 429.588 185.704C428.529 186.095 427.35 187.035 426.049 188.527L423.78 191.13L414.776 182.556L423.39 172.674L426.297 175.332L420.722 181.727L424.194 185.044C426.227 182.712 428.254 181.274 430.277 180.729C432.291 180.178 434.088 180.59 435.666 181.966C436.86 183.006 437.632 184.197 437.982 185.539C438.325 186.874 438.303 188.223 437.916 189.586C437.529 190.934 436.835 192.181 435.836 193.327C434.994 194.293 434.105 195.115 433.17 195.791C432.241 196.461 431.417 196.986 430.697 197.367C429.977 197.734 429.601 197.904 429.569 197.877L427.823 194.53ZM431.681 162.593C433.043 161.03 434.443 160.081 435.882 159.746C437.32 159.397 438.831 159.574 440.415 160.277C441.999 160.981 443.748 162.168 445.664 163.838C448.625 166.419 450.419 168.902 451.048 171.288C451.669 173.667 451.01 175.967 449.073 178.189C447.15 180.396 445.024 181.368 442.695 181.107C440.365 180.831 437.76 179.437 434.878 176.925C431.949 174.372 430.183 171.92 429.578 169.57C428.974 167.219 429.675 164.893 431.681 162.593ZM434.573 165.362C434.025 165.991 433.774 166.643 433.821 167.319C433.867 167.995 434.238 168.781 434.935 169.679C435.63 170.561 436.708 171.639 438.169 172.912C440.257 174.733 441.913 175.838 443.136 176.226C444.358 176.615 445.363 176.358 446.151 175.455C446.671 174.858 446.892 174.216 446.816 173.527C446.731 172.831 446.333 172.035 445.622 171.139C444.903 170.236 443.813 169.148 442.353 167.875C440.924 166.629 439.74 165.728 438.801 165.172C437.854 164.61 437.05 164.344 436.388 164.374C435.725 164.405 435.12 164.734 434.573 165.362Z" fill="white"/>
<path d="M417.281 428.848L413.012 425.738L430.649 415.62L424.928 411.452L422.652 413.487L420.038 411.583L424.151 405.937L437.348 415.552L435.315 418.343L417.281 428.848ZM428.894 431.296C428.975 431.432 429.179 431.754 429.505 432.262C429.845 432.768 430.291 433.351 430.842 434.01C431.399 434.66 432.01 435.228 432.675 435.712C433.534 436.338 434.407 436.626 435.293 436.576C436.186 436.518 436.927 436.085 437.516 435.276C438.222 434.308 438.33 433.311 437.84 432.284C437.359 431.264 436.319 430.171 434.719 429.005L431.928 426.972L439.685 417.254L450.28 424.973L447.886 428.1L441.029 423.104L438.027 426.853C440.528 428.674 442.138 430.569 442.857 432.536C443.582 434.495 443.328 436.321 442.095 438.013C441.163 439.293 440.044 440.166 438.738 440.632C437.438 441.089 436.092 441.185 434.701 440.919C433.324 440.651 432.021 440.069 430.792 439.173C429.756 438.419 428.86 437.605 428.104 436.732C427.357 435.866 426.762 435.09 426.319 434.407C425.89 433.721 425.688 433.361 425.713 433.328L428.894 431.296ZM461.047 432.352C462.722 433.573 463.789 434.885 464.248 436.289C464.722 437.691 464.678 439.212 464.115 440.851C463.552 442.49 462.523 444.337 461.026 446.391C458.714 449.565 456.397 451.57 454.075 452.404C451.759 453.23 449.41 452.775 447.027 451.039C444.661 449.316 443.507 447.283 443.564 444.94C443.635 442.595 444.796 439.878 447.047 436.788C449.335 433.647 451.624 431.674 453.913 430.867C456.202 430.06 458.58 430.555 461.047 432.352ZM458.54 435.475C457.866 434.984 457.195 434.791 456.525 434.896C455.856 435.002 455.105 435.44 454.271 436.212C453.453 436.982 452.473 438.15 451.332 439.716C449.701 441.955 448.745 443.701 448.464 444.953C448.184 446.205 448.528 447.184 449.496 447.889C450.136 448.355 450.795 448.52 451.475 448.384C452.16 448.239 452.918 447.773 453.749 446.986C454.586 446.191 455.575 445.011 456.716 443.445C457.832 441.912 458.626 440.654 459.098 439.67C459.576 438.678 459.771 437.854 459.683 437.196C459.594 436.539 459.213 435.965 458.54 435.475Z" fill="white"/>
<path d="M194.442 415.983L197.733 411.853L207.08 429.91L211.491 424.374L209.556 422.013L211.572 419.484L217.034 423.836L206.859 436.606L204.158 434.454L194.442 415.983ZM191.494 427.48C191.355 427.555 191.024 427.744 190.502 428.048C189.982 428.366 189.381 428.786 188.699 429.308C188.025 429.837 187.431 430.423 186.919 431.066C186.257 431.897 185.931 432.757 185.943 433.645C185.962 434.54 186.363 435.299 187.145 435.922C188.082 436.668 189.074 436.819 190.121 436.375C191.161 435.938 192.298 434.946 193.531 433.398L195.683 430.698L205.057 438.867L196.888 449.119L193.867 446.592L199.154 439.957L195.539 436.796C193.611 439.216 191.649 440.742 189.652 441.376C187.664 442.016 185.851 441.683 184.213 440.378C182.975 439.392 182.151 438.236 181.742 436.911C181.341 435.592 181.303 434.244 181.629 432.865C181.957 431.501 182.595 430.225 183.542 429.035C184.341 428.033 185.192 427.173 186.097 426.456C186.995 425.746 187.796 425.185 188.498 424.772C189.201 424.374 189.569 424.188 189.602 424.214L191.494 427.48ZM189.05 459.556C187.758 461.178 186.401 462.187 184.979 462.585C183.558 462.998 182.04 462.888 180.427 462.255C178.814 461.622 177.013 460.514 175.025 458.93C171.954 456.482 170.052 454.081 169.318 451.725C168.593 449.376 169.149 447.048 170.986 444.743C172.81 442.453 174.891 441.388 177.229 441.546C179.569 441.719 182.234 442.997 185.223 445.379C188.262 447.8 190.135 450.172 190.842 452.493C191.55 454.815 190.952 457.17 189.05 459.556ZM186.039 456.917C186.558 456.265 186.78 455.603 186.704 454.929C186.628 454.256 186.222 453.487 185.486 452.621C184.753 451.77 183.628 450.741 182.113 449.533C179.946 447.807 178.243 446.776 177.004 446.442C175.766 446.107 174.773 446.409 174.027 447.345C173.533 447.965 173.34 448.616 173.447 449.301C173.562 449.992 173.995 450.77 174.745 451.634C175.503 452.504 176.64 453.543 178.155 454.751C179.638 455.932 180.86 456.78 181.823 457.294C182.793 457.814 183.609 458.044 184.269 457.984C184.93 457.925 185.52 457.569 186.039 456.917Z" fill="white"/>
<path d="M198.078 196.254L202.252 199.49L184.32 209.075L189.914 213.413L192.249 211.447L194.805 213.429L190.525 218.948L177.622 208.943L179.738 206.214L198.078 196.254ZM186.543 193.459C186.466 193.32 186.273 192.992 185.962 192.475C185.637 191.959 185.209 191.363 184.678 190.688C184.141 190.021 183.547 189.436 182.897 188.931C182.057 188.28 181.193 187.966 180.305 187.99C179.411 188.021 178.657 188.432 178.045 189.222C177.31 190.169 177.173 191.163 177.631 192.203C178.081 193.238 179.088 194.361 180.652 195.574L183.381 197.69L175.337 207.172L164.977 199.139L167.464 196.085L174.169 201.283L177.281 197.627C174.837 195.731 173.284 193.789 172.624 191.801C171.958 189.821 172.266 188.004 173.549 186.35C174.52 185.098 175.664 184.259 176.984 183.833C178.297 183.414 179.645 183.359 181.028 183.666C182.396 183.976 183.681 184.596 184.883 185.528C185.895 186.313 186.766 187.154 187.496 188.049C188.217 188.938 188.789 189.73 189.211 190.427C189.619 191.125 189.81 191.49 189.784 191.523L186.543 193.459ZM154.437 191.441C152.799 190.17 151.771 188.827 151.355 187.409C150.923 185.994 151.013 184.475 151.625 182.854C152.236 181.232 153.321 179.417 154.878 177.408C157.284 174.305 159.661 172.371 162.006 171.606C164.346 170.85 166.681 171.375 169.01 173.181C171.323 174.975 172.416 177.042 172.289 179.382C172.147 181.723 170.905 184.405 168.563 187.426C166.182 190.497 163.835 192.401 161.523 193.139C159.211 193.877 156.849 193.311 154.437 191.441ZM157.036 188.394C157.695 188.905 158.36 189.118 159.033 189.033C159.705 188.948 160.469 188.532 161.325 187.785C162.166 187.04 163.18 185.902 164.368 184.371C166.065 182.181 167.073 180.465 167.391 179.222C167.709 177.979 167.395 176.99 166.448 176.256C165.822 175.771 165.168 175.587 164.485 175.703C163.795 175.827 163.023 176.27 162.169 177.031C161.309 177.801 160.285 178.952 159.098 180.483C157.936 181.981 157.105 183.215 156.604 184.184C156.096 185.161 155.877 185.98 155.946 186.639C156.014 187.299 156.378 187.884 157.036 188.394Z" fill="white"/>
<path d="M372.138 171.627L373.591 167.384L360.582 162.931L361.969 168.575L358.144 169.231L356.011 160.458L357.337 156.585L375.195 162.698L376.596 158.603L380.085 159.797L375.627 172.821L372.138 171.627ZM362.053 141.651C362.724 139.69 363.663 138.283 364.869 137.429C366.068 136.563 367.534 136.156 369.266 136.21C370.999 136.263 373.067 136.701 375.472 137.525C379.187 138.796 381.786 140.418 383.269 142.39C384.742 144.359 385.002 146.738 384.047 149.527C383.099 152.296 381.497 153.999 379.242 154.637C376.981 155.261 374.042 154.954 370.425 153.716C366.749 152.457 364.187 150.854 362.74 148.905C361.293 146.957 361.064 144.539 362.053 141.651ZM365.776 143.124C365.507 143.912 365.521 144.611 365.819 145.219C366.117 145.828 366.758 146.416 367.742 146.984C368.719 147.539 370.124 148.13 371.957 148.757C374.578 149.655 376.529 150.052 377.808 149.951C379.087 149.849 379.92 149.232 380.308 148.098C380.564 147.349 380.527 146.67 380.196 146.062C379.855 145.449 379.186 144.863 378.189 144.301C377.182 143.736 375.762 143.14 373.929 142.513C372.136 141.899 370.699 141.512 369.62 141.351C368.531 141.188 367.686 141.245 367.084 141.524C366.482 141.802 366.046 142.335 365.776 143.124ZM368.732 122.138C369.404 120.176 370.342 118.769 371.548 117.916C372.748 117.049 374.214 116.643 375.946 116.696C377.678 116.75 379.747 117.188 382.152 118.011C385.867 119.283 388.466 120.905 389.949 122.877C391.422 124.845 391.681 127.224 390.727 130.013C389.779 132.783 388.177 134.486 385.922 135.123C383.661 135.747 380.721 135.44 377.104 134.202C373.428 132.944 370.867 131.341 369.42 129.392C367.973 127.443 367.744 125.025 368.732 122.138ZM372.456 123.61C372.186 124.399 372.2 125.097 372.499 125.706C372.797 126.314 373.438 126.903 374.421 127.471C375.398 128.025 376.804 128.616 378.637 129.244C381.258 130.141 383.208 130.539 384.487 130.437C385.766 130.336 386.6 129.718 386.988 128.585C387.244 127.836 387.207 127.157 386.876 126.548C386.535 125.936 385.866 125.349 384.869 124.788C383.862 124.223 382.442 123.627 380.609 122.999C378.816 122.385 377.379 121.998 376.3 121.838C375.211 121.674 374.365 121.732 373.764 122.01C373.162 122.289 372.726 122.822 372.456 123.61Z" fill="white"/>
<path d="M446.851 373.825L451.205 374.901L454.506 361.554L449.004 363.428L448.017 359.675L456.57 356.785L460.544 357.768L456.013 376.091L460.215 377.13L459.329 380.709L445.966 377.405L446.851 373.825ZM475.833 361.162C477.845 361.66 479.329 362.472 480.284 363.599C481.252 364.718 481.785 366.143 481.883 367.874C481.981 369.604 481.725 371.703 481.114 374.17C480.172 377.982 478.783 380.713 476.948 382.362C475.115 384.002 472.768 384.467 469.906 383.76C467.065 383.057 465.228 381.61 464.396 379.419C463.577 377.221 463.627 374.266 464.545 370.555C465.477 366.783 466.851 364.092 468.666 362.48C470.481 360.869 472.87 360.43 475.833 361.162ZM474.69 365C473.882 364.8 473.187 364.875 472.607 365.225C472.027 365.576 471.497 366.265 471.017 367.295C470.549 368.317 470.083 369.768 469.618 371.649C468.953 374.339 468.726 376.316 468.939 377.581C469.152 378.846 469.84 379.623 471.003 379.91C471.772 380.101 472.445 380.004 473.022 379.621C473.602 379.228 474.128 378.511 474.601 377.468C475.076 376.416 475.546 374.95 476.011 373.069C476.466 371.228 476.726 369.764 476.792 368.675C476.86 367.576 476.729 366.738 476.399 366.163C476.069 365.588 475.499 365.2 474.69 365ZM495.855 366.114C497.867 366.612 499.351 367.424 500.306 368.551C501.274 369.67 501.807 371.095 501.905 372.825C502.003 374.556 501.746 376.654 501.136 379.122C500.193 382.934 498.804 385.665 496.969 387.314C495.137 388.953 492.79 389.419 489.928 388.711C487.087 388.009 485.25 386.562 484.418 384.371C483.599 382.173 483.649 379.218 484.566 375.507C485.499 371.735 486.873 369.043 488.688 367.432C490.503 365.821 492.892 365.381 495.855 366.114ZM494.712 369.952C493.903 369.752 493.209 369.827 492.629 370.177C492.048 370.527 491.518 371.217 491.038 372.246C490.571 373.268 490.105 374.72 489.64 376.6C488.974 379.29 488.748 381.268 488.961 382.533C489.174 383.798 489.862 384.574 491.025 384.862C491.793 385.052 492.466 384.956 493.044 384.573C493.624 384.18 494.15 383.462 494.623 382.42C495.097 381.368 495.567 379.901 496.033 378.02C496.488 376.18 496.748 374.715 496.813 373.626C496.881 372.527 496.75 371.69 496.421 371.115C496.091 370.54 495.521 370.152 494.712 369.952Z" fill="white"/>
<path d="M248.136 447.903L246.872 452.206L260.065 456.08L258.43 450.503L262.222 449.679L264.74 458.349L263.587 462.277L245.477 456.958L244.257 461.111L240.719 460.072L244.598 446.864L248.136 447.903ZM259.535 477.404C258.951 479.393 258.075 480.841 256.908 481.746C255.748 482.665 254.301 483.136 252.569 483.159C250.836 483.182 248.75 482.835 246.311 482.119C242.543 481.013 239.875 479.507 238.306 477.602C236.748 475.701 236.384 473.336 237.215 470.507C238.039 467.699 239.564 465.926 241.789 465.19C244.021 464.467 246.97 464.644 250.638 465.721C254.366 466.816 256.996 468.305 258.528 470.188C260.059 472.07 260.395 474.476 259.535 477.404ZM255.75 476.097C255.985 475.298 255.94 474.601 255.615 474.006C255.29 473.411 254.624 472.852 253.616 472.328C252.615 471.817 251.186 471.288 249.327 470.742C246.668 469.962 244.702 469.65 243.429 469.808C242.156 469.966 241.35 470.62 241.013 471.769C240.79 472.529 240.857 473.206 241.215 473.799C241.582 474.396 242.276 474.952 243.297 475.469C244.328 475.989 245.773 476.522 247.632 477.068C249.451 477.602 250.903 477.925 251.988 478.038C253.083 478.153 253.925 478.059 254.514 477.754C255.103 477.449 255.515 476.897 255.75 476.097ZM253.723 497.194C253.139 499.183 252.263 500.63 251.096 501.536C249.936 502.454 248.49 502.925 246.757 502.948C245.024 502.971 242.938 502.625 240.499 501.908C236.731 500.802 234.063 499.296 232.495 497.392C230.936 495.49 230.572 493.125 231.403 490.296C232.228 487.488 233.752 485.716 235.977 484.979C238.209 484.256 241.159 484.433 244.827 485.51C248.555 486.605 251.184 488.094 252.716 489.977C254.247 491.86 254.583 494.265 253.723 497.194ZM249.938 495.887C250.173 495.087 250.128 494.39 249.803 493.795C249.478 493.2 248.812 492.641 247.804 492.117C246.804 491.606 245.374 491.077 243.515 490.532C240.856 489.751 238.89 489.439 237.617 489.597C236.344 489.755 235.539 490.409 235.201 491.559C234.978 492.318 235.045 492.995 235.403 493.588C235.77 494.185 236.465 494.742 237.485 495.258C238.516 495.778 239.961 496.311 241.82 496.857C243.639 497.391 245.091 497.715 246.176 497.827C247.271 497.942 248.113 497.848 248.702 497.543C249.291 497.238 249.703 496.686 249.938 495.887Z" fill="white"/>
<path d="M166.873 250.367L162.554 249.16L158.855 262.403L164.41 260.694L165.284 264.475L156.648 267.108L152.705 266.007L157.783 247.828L153.615 246.663L154.607 243.112L167.865 246.815L166.873 250.367ZM137.525 262.156C135.529 261.598 134.07 260.742 133.149 259.587C132.215 258.439 131.725 256.999 131.679 255.266C131.633 253.534 131.952 251.443 132.636 248.995C133.692 245.213 135.162 242.525 137.046 240.932C138.927 239.348 141.287 238.953 144.126 239.746C146.945 240.533 148.738 242.034 149.503 244.249C150.256 246.471 150.118 249.423 149.09 253.105C148.044 256.847 146.591 259.496 144.728 261.053C142.866 262.609 140.465 262.977 137.525 262.156ZM138.782 258.354C139.585 258.578 140.281 258.524 140.872 258.191C141.462 257.858 142.012 257.185 142.523 256.17C143.021 255.163 143.53 253.726 144.052 251.86C144.797 249.191 145.082 247.221 144.907 245.95C144.732 244.679 144.068 243.883 142.914 243.56C142.152 243.348 141.476 243.424 140.887 243.789C140.296 244.165 139.748 244.866 139.245 245.894C138.739 246.931 138.225 248.383 137.704 250.249C137.194 252.075 136.89 253.531 136.792 254.618C136.691 255.715 136.797 256.555 137.109 257.14C137.422 257.725 137.979 258.129 138.782 258.354ZM117.661 256.607C115.664 256.049 114.205 255.193 113.284 254.038C112.35 252.89 111.86 251.45 111.814 249.717C111.768 247.985 112.087 245.895 112.771 243.447C113.828 239.664 115.298 236.976 117.181 235.383C119.062 233.799 121.422 233.404 124.261 234.197C127.081 234.984 128.873 236.485 129.639 238.7C130.392 240.922 130.254 243.874 129.225 247.556C128.18 251.298 126.726 253.948 124.864 255.504C123.001 257.06 120.6 257.428 117.661 256.607ZM118.918 252.805C119.72 253.029 120.417 252.975 121.007 252.642C121.597 252.309 122.148 251.636 122.659 250.621C123.156 249.614 123.666 248.177 124.187 246.311C124.932 243.642 125.218 241.672 125.043 240.401C124.868 239.13 124.204 238.334 123.05 238.012C122.287 237.799 121.612 237.875 121.023 238.24C120.431 238.616 119.884 239.317 119.381 240.345C118.874 241.382 118.361 242.834 117.839 244.7C117.329 246.526 117.025 247.982 116.927 249.069C116.826 250.166 116.932 251.006 117.245 251.591C117.557 252.176 118.115 252.58 118.918 252.805Z" fill="white"/>
<path d="M315.36 191.381L315.286 186.898L301.538 187.125L304.759 191.963L301.384 193.878L296.4 186.35L296.332 182.257L315.205 181.945L315.133 177.618L318.82 177.557L319.047 191.32L315.36 191.381ZM295.699 166.609C295.664 164.536 296.07 162.894 296.914 161.682C297.748 160.46 298.989 159.58 300.637 159.042C302.284 158.504 304.379 158.214 306.92 158.172C310.847 158.108 313.842 158.751 315.906 160.102C317.96 161.454 319.012 163.604 319.06 166.551C319.109 169.478 318.18 171.624 316.276 172.989C314.36 174.343 311.491 175.052 307.669 175.115C303.784 175.18 300.83 174.541 298.808 173.199C296.785 171.857 295.749 169.661 295.699 166.609ZM299.701 166.73C299.715 167.564 299.965 168.216 300.452 168.687C300.939 169.158 301.742 169.494 302.86 169.694C303.967 169.884 305.49 169.963 307.427 169.931C310.197 169.885 312.167 169.598 313.335 169.068C314.504 168.538 315.078 167.674 315.058 166.477C315.045 165.685 314.78 165.059 314.262 164.599C313.733 164.139 312.905 163.814 311.777 163.624C310.638 163.435 309.1 163.356 307.163 163.388C305.267 163.419 303.785 163.543 302.715 163.758C301.635 163.974 300.859 164.315 300.388 164.781C299.916 165.247 299.687 165.897 299.701 166.73ZM315.9 154.008C315.046 154.022 314.354 153.773 313.824 153.261C313.295 152.738 313.024 152.081 313.011 151.29C312.997 150.477 313.242 149.822 313.744 149.324C314.246 148.826 314.966 148.569 315.903 148.554C318.309 148.514 321.12 149.942 324.334 152.837L322.696 154.88C322.569 154.778 322.274 154.58 321.811 154.285C321.348 153.991 320.828 153.708 320.25 153.436C319.683 153.154 319.212 153.016 318.837 153.022C318.628 153.025 318.406 153.091 318.168 153.22C317.93 153.339 317.791 153.409 317.75 153.43C317.409 153.603 317.114 153.743 316.866 153.851C316.607 153.949 316.285 154.002 315.9 154.008ZM295.198 136.301C295.164 134.228 295.569 132.586 296.414 131.374C297.248 130.151 298.489 129.271 300.136 128.734C301.784 128.196 303.878 127.906 306.42 127.864C310.346 127.799 313.342 128.442 315.406 129.794C317.46 131.146 318.511 133.295 318.56 136.243C318.608 139.169 317.68 141.315 315.775 142.68C313.86 144.035 310.991 144.744 307.168 144.807C303.283 144.871 300.33 144.232 298.307 142.891C296.285 141.549 295.248 139.352 295.198 136.301ZM299.201 136.422C299.214 137.255 299.465 137.907 299.952 138.379C300.439 138.85 301.241 139.185 302.359 139.386C303.467 139.576 304.989 139.655 306.926 139.623C309.697 139.577 311.666 139.289 312.835 138.76C314.003 138.23 314.578 137.366 314.558 136.168C314.545 135.377 314.279 134.751 313.761 134.291C313.233 133.83 312.404 133.506 311.276 133.316C310.137 133.126 308.599 133.047 306.662 133.079C304.766 133.111 303.284 133.234 302.214 133.45C301.134 133.666 300.359 134.007 299.887 134.473C299.416 134.939 299.187 135.589 299.201 136.422ZM294.857 115.678C294.823 113.606 295.228 111.963 296.073 110.751C296.907 109.529 298.148 108.649 299.796 108.111C301.443 107.574 303.538 107.284 306.079 107.242C310.005 107.177 313.001 107.82 315.065 109.172C317.119 110.523 318.17 112.673 318.219 115.621C318.267 118.547 317.339 120.693 315.434 122.058C313.519 123.413 310.65 124.122 306.828 124.185C302.943 124.249 299.989 123.61 297.967 122.269C295.944 120.927 294.908 118.73 294.857 115.678ZM298.86 115.8C298.874 116.633 299.124 117.285 299.611 117.756C300.098 118.228 300.901 118.563 302.019 118.764C303.126 118.954 304.648 119.033 306.586 119.001C309.356 118.955 311.326 118.667 312.494 118.137C313.663 117.608 314.237 116.744 314.217 115.546C314.204 114.755 313.939 114.129 313.42 113.668C312.892 113.208 312.064 112.883 310.935 112.694C309.797 112.504 308.259 112.425 306.321 112.457C304.426 112.489 302.943 112.612 301.874 112.828C300.794 113.043 300.018 113.384 299.547 113.851C299.075 114.317 298.846 114.967 298.86 115.8ZM294.517 95.0561C294.483 92.9835 294.888 91.3412 295.732 90.1291C296.566 88.9069 297.807 88.0269 299.455 87.4892C301.103 86.9515 303.197 86.6616 305.738 86.6197C309.665 86.5548 312.66 87.1981 314.725 88.5496C316.778 89.9013 317.83 92.0509 317.878 94.9984C317.927 97.9251 316.998 100.071 315.094 101.436C313.178 102.791 310.309 103.5 306.487 103.563C302.602 103.627 299.648 102.988 297.626 101.646C295.604 100.305 294.567 98.1078 294.517 95.0561ZM298.519 95.1776C298.533 96.0108 298.783 96.663 299.27 97.1342C299.757 97.6054 300.56 97.9411 301.678 98.1414C302.786 98.3315 304.308 98.4105 306.245 98.3785C309.016 98.3328 310.985 98.045 312.154 97.5152C313.322 96.9854 313.896 96.1216 313.877 94.9239C313.863 94.1323 313.598 93.5064 313.08 93.0462C312.551 92.5861 311.723 92.2612 310.595 92.0714C309.456 91.8819 307.918 91.8031 305.981 91.8351C304.085 91.8664 302.603 91.9899 301.533 92.2055C300.453 92.4213 299.677 92.7623 299.206 93.2284C298.734 93.6946 298.506 94.3443 298.519 95.1776Z" fill="white"/>
<path d="M464.225 318.007C466.73 315.515 468.621 313.569 469.9 312.168C471.178 310.768 472.159 309.477 472.842 308.295C473.524 307.104 473.814 306.01 473.71 305.016C473.608 304.042 473.186 303.306 472.443 302.807C471.709 302.297 470.777 302.101 469.648 302.219C469.14 302.272 468.674 302.368 468.248 302.506C467.822 302.634 467.479 302.759 467.219 302.881C466.97 303.001 466.815 303.075 466.755 303.102L466.726 305.838L463.369 306.188L462.602 300.33C462.782 300.248 463.213 300.067 463.896 299.787C464.579 299.506 465.423 299.219 466.43 298.925C467.446 298.631 468.462 298.431 469.478 298.325C472.233 298.038 474.418 298.297 476.031 299.103C477.654 299.907 478.583 301.434 478.818 303.682C478.966 305.101 478.761 306.5 478.203 307.878C477.655 309.255 476.826 310.65 475.717 312.064C474.608 313.479 473.077 315.22 471.125 317.288L480.682 316.291L481.087 320.176L464.63 321.892L464.225 318.007ZM490.877 296.094C492.939 295.879 494.61 296.139 495.891 296.875C497.182 297.599 498.167 298.759 498.846 300.353C499.526 301.947 499.997 304.008 500.261 306.536C500.668 310.442 500.288 313.482 499.122 315.657C497.955 317.821 495.905 319.056 492.973 319.361C490.062 319.665 487.843 318.927 486.317 317.149C484.8 315.359 483.844 312.563 483.448 308.761C483.045 304.896 483.423 301.898 484.583 299.766C485.744 297.634 487.842 296.41 490.877 296.094ZM491.105 300.092C490.277 300.178 489.649 300.484 489.222 301.011C488.795 301.537 488.531 302.366 488.429 303.497C488.336 304.617 488.39 306.14 488.591 308.067C488.878 310.823 489.337 312.76 489.966 313.878C490.596 314.996 491.507 315.492 492.698 315.368C493.486 315.286 494.086 314.967 494.499 314.411C494.911 313.844 495.163 312.99 495.253 311.85C495.343 310.699 495.287 309.16 495.086 307.233C494.89 305.347 494.637 303.881 494.329 302.835C494.02 301.778 493.613 301.035 493.107 300.606C492.601 300.177 491.934 300.005 491.105 300.092Z" fill="white"/>
<path d="M307.936 471.589C310.317 474.199 312.18 476.173 313.524 477.511C314.868 478.848 316.115 479.884 317.266 480.618C318.427 481.351 319.507 481.687 320.505 481.626C321.483 481.567 322.236 481.177 322.766 480.456C323.308 479.745 323.544 478.822 323.475 477.689C323.444 477.18 323.369 476.709 323.248 476.278C323.139 475.847 323.029 475.499 322.919 475.234C322.809 474.98 322.743 474.822 322.718 474.761L319.985 474.614L319.781 471.245L325.666 470.731C325.74 470.914 325.903 471.353 326.153 472.047C326.404 472.742 326.655 473.598 326.904 474.616C327.155 475.644 327.311 476.668 327.373 477.687C327.541 480.453 327.187 482.624 326.313 484.201C325.438 485.788 323.873 486.65 321.617 486.787C320.193 486.874 318.804 486.608 317.452 485.991C316.1 485.385 314.742 484.497 313.376 483.327C312.011 482.158 310.338 480.553 308.357 478.514L308.939 488.105L305.04 488.342L304.037 471.826L307.936 471.589ZM328.677 499.163C328.803 501.232 328.471 502.891 327.68 504.139C326.901 505.397 325.7 506.331 324.078 506.941C322.456 507.551 320.376 507.933 317.839 508.087C313.919 508.325 310.898 507.814 308.776 506.555C306.665 505.296 305.52 503.195 305.341 500.252C305.164 497.33 305.996 495.146 307.839 493.698C309.693 492.26 312.527 491.425 316.343 491.193C320.221 490.958 323.2 491.465 325.28 492.717C327.36 493.968 328.492 496.117 328.677 499.163ZM324.673 499.218C324.623 498.387 324.344 497.746 323.837 497.297C323.329 496.848 322.513 496.548 321.387 496.397C320.272 496.256 318.748 496.244 316.814 496.362C314.048 496.53 312.093 496.904 310.949 497.485C309.805 498.066 309.27 498.954 309.342 500.15C309.39 500.94 309.683 501.554 310.221 501.991C310.769 502.427 311.611 502.715 312.747 502.855C313.893 502.994 315.433 503.005 317.367 502.887C319.259 502.772 320.735 502.583 321.794 502.321C322.863 502.057 323.623 501.683 324.073 501.196C324.524 500.709 324.724 500.05 324.673 499.218Z" fill="white"/>
<path d="M144.251 303.755C141.673 306.171 139.723 308.06 138.404 309.422C137.084 310.783 136.065 312.044 135.347 313.205C134.629 314.375 134.307 315.459 134.381 316.457C134.453 317.433 134.854 318.182 135.582 318.702C136.3 319.234 137.225 319.458 138.358 319.374C138.867 319.336 139.336 319.255 139.765 319.129C140.195 319.013 140.542 318.899 140.805 318.785C141.058 318.673 141.215 318.604 141.275 318.578L141.386 315.844L144.752 315.594L145.344 321.473C145.162 321.549 144.725 321.717 144.034 321.977C143.343 322.238 142.49 322.499 141.476 322.762C140.451 323.026 139.429 323.196 138.411 323.271C135.648 323.476 133.472 323.151 131.884 322.298C130.285 321.445 129.402 319.891 129.236 317.637C129.13 316.214 129.377 314.822 129.976 313.461C130.565 312.102 131.435 310.732 132.586 309.351C133.737 307.971 135.319 306.276 137.333 304.268L127.749 304.978L127.461 301.082L143.963 299.86L144.251 303.755ZM116.954 324.861C114.887 325.014 113.224 324.703 111.966 323.93C110.698 323.167 109.748 321.979 109.116 320.365C108.485 318.751 108.076 316.676 107.888 314.142C107.598 310.225 108.068 307.198 109.299 305.059C110.53 302.931 112.616 301.759 115.556 301.541C118.475 301.325 120.671 302.128 122.143 303.951C123.605 305.786 124.478 308.609 124.76 312.422C125.047 316.297 124.579 319.282 123.355 321.378C122.132 323.474 119.998 324.635 116.954 324.861ZM116.846 320.858C117.677 320.796 118.314 320.509 118.756 319.995C119.199 319.482 119.488 318.662 119.624 317.534C119.75 316.417 119.741 314.893 119.598 312.961C119.394 310.198 118.993 308.248 118.397 307.112C117.801 305.976 116.906 305.452 115.711 305.54C114.922 305.599 114.312 305.9 113.882 306.443C113.453 306.997 113.177 307.843 113.052 308.98C112.928 310.128 112.938 311.668 113.081 313.6C113.221 315.491 113.429 316.964 113.706 318.019C113.983 319.085 114.368 319.84 114.861 320.284C115.353 320.728 116.015 320.919 116.846 320.858Z" fill="white"/>
<defs>
<filter id="filter0_f_458_19" x="0" y="0" width="622" height="622" filterUnits="userSpaceOnUse" color-interpolation-filters="sRGB">
<feFlood flood-opacity="0" result="BackgroundImageFix"/>
<feBlend mode="normal" in="SourceGraphic" in2="BackgroundImageFix" result="shape"/>
<feGaussianBlur stdDeviation="1.5" result="effect1_foregroundBlur_458_19"/>
</filter>
<filter id="filter1_f_458_19" x="267.384" y="349.27" width="103.262" height="214.401" filterUnits="userSpaceOnUse" color-interpolation-filters="sRGB">
<feFlood flood-opacity="0" result="BackgroundImageFix"/>
<feBlend mode="normal" in="SourceGraphic" in2="BackgroundImageFix" result="shape"/>
<feGaussianBlur stdDeviation="1" result="effect1_foregroundBlur_458_19"/>
</filter>
<filter id="filter2_f_458_19" x="335.423" y="331.463" width="192.033" height="183.932" filterUnits="userSpaceOnUse" color-interpolation-filters="sRGB">
<feFlood flood-opacity="0" result="BackgroundImageFix"/>
<feBlend mode="normal" in="SourceGraphic" in2="BackgroundImageFix" result="shape"/>
<feGaussianBlur stdDeviation="1" result="effect1_foregroundBlur_458_19"/>
</filter>
<filter id="filter3_f_458_19" x="352.055" y="253.133" width="214.159" height="102.147" filterUnits="userSpaceOnUse" color-interpolation-filters="sRGB">
<feFlood flood-opacity="0" result="BackgroundImageFix"/>
<feBlend mode="normal" in="SourceGraphic" in2="BackgroundImageFix" result="shape"/>
<feGaussianBlur stdDeviation="1" result="effect1_foregroundBlur_458_19"/>
</filter>
<filter id="filter4_f_458_19" x="335.661" y="95.3882" width="180.408" height="194.9" filterUnits="userSpaceOnUse" color-interpolation-filters="sRGB">
<feFlood flood-opacity="0" result="BackgroundImageFix"/>
<feBlend mode="normal" in="SourceGraphic" in2="BackgroundImageFix" result="shape"/>
<feGaussianBlur stdDeviation="1" result="effect1_foregroundBlur_458_19"/>
</filter>
<filter id="filter5_f_458_19" x="254.227" y="58.417" width="101.431" height="214.194" filterUnits="userSpaceOnUse" color-interpolation-filters="sRGB">
<feFlood flood-opacity="0" result="BackgroundImageFix"/>
<feBlend mode="normal" in="SourceGraphic" in2="BackgroundImageFix" result="shape"/>
<feGaussianBlur stdDeviation="1" result="effect1_foregroundBlur_458_19"/>
</filter>
<filter id="filter6_f_458_19" x="94.2998" y="107.958" width="192.93" height="182.876" filterUnits="userSpaceOnUse" color-interpolation-filters="sRGB">
<feFlood flood-opacity="0" result="BackgroundImageFix"/>
<feBlend mode="normal" in="SourceGraphic" in2="BackgroundImageFix" result="shape"/>
<feGaussianBlur stdDeviation="1" result="effect1_foregroundBlur_458_19"/>
</filter>
<filter id="filter7_f_458_19" x="56.0449" y="269.455" width="214.226" height="102.118" filterUnits="userSpaceOnUse" color-interpolation-filters="sRGB">
<feFlood flood-opacity="0" result="BackgroundImageFix"/>
<feBlend mode="normal" in="SourceGraphic" in2="BackgroundImageFix" result="shape"/>
<feGaussianBlur stdDeviation="1" result="effect1_foregroundBlur_458_19"/>
</filter>
<filter id="filter8_f_458_19" x="102.81" y="334.509" width="184.459" height="191.566" filterUnits="userSpaceOnUse" color-interpolation-filters="sRGB">
<feFlood flood-opacity="0" result="BackgroundImageFix"/>
<feBlend mode="normal" in="SourceGraphic" in2="BackgroundImageFix" result="shape"/>
<feGaussianBlur stdDeviation="1" result="effect1_foregroundBlur_458_19"/>
</filter>
<linearGradient id="paint0_linear_458_19" x1="293.831" y1="-322.681" x2="344.334" y2="617.705" gradientUnits="userSpaceOnUse">
<stop offset="0.59705" stop-color="#FEFFC2"/>
<stop offset="0.781938" stop-color="#FFC526"/>
<stop offset="1" stop-color="#EBD599"/>
</linearGradient>
<linearGradient id="paint1_linear_458_19" x1="319.015" y1="351.27" x2="319.015" y2="561.671" gradientUnits="userSpaceOnUse">
<stop offset="0.55" stop-color="#9E1D21"/>
<stop offset="1" stop-color="#331818"/>
</linearGradient>
<linearGradient id="paint2_linear_458_19" x1="431.44" y1="333.463" x2="431.44" y2="513.395" gradientUnits="userSpaceOnUse">
<stop offset="0.55" stop-color="#9E1D21"/>
<stop offset="1" stop-color="#331818"/>
</linearGradient>
<linearGradient id="paint3_linear_458_19" x1="459.134" y1="255.133" x2="459.134" y2="353.28" gradientUnits="userSpaceOnUse">
<stop offset="0.55" stop-color="#9E1D21"/>
<stop offset="1" stop-color="#331818"/>
</linearGradient>
<linearGradient id="paint4_linear_458_19" x1="425.865" y1="97.3882" x2="425.865" y2="288.288" gradientUnits="userSpaceOnUse">
<stop offset="0.55" stop-color="#9E1D21"/>
<stop offset="1" stop-color="#331818"/>
</linearGradient>
<linearGradient id="paint5_linear_458_19" x1="304.942" y1="60.417" x2="304.942" y2="270.611" gradientUnits="userSpaceOnUse">
<stop offset="0.55" stop-color="#9E1D21"/>
<stop offset="1" stop-color="#331818"/>
</linearGradient>
<linearGradient id="paint6_linear_458_19" x1="190.764" y1="109.958" x2="190.764" y2="288.835" gradientUnits="userSpaceOnUse">
<stop offset="0.55" stop-color="#9E1D21"/>
<stop offset="1" stop-color="#331818"/>
</linearGradient>
<linearGradient id="paint7_linear_458_19" x1="163.158" y1="271.455" x2="163.158" y2="369.573" gradientUnits="userSpaceOnUse">
<stop offset="0.55" stop-color="#9E1D21"/>
<stop offset="1" stop-color="#331818"/>
</linearGradient>
<linearGradient id="paint8_linear_458_19" x1="195.039" y1="336.509" x2="195.039" y2="524.075" gradientUnits="userSpaceOnUse">
<stop offset="0.55" stop-color="#9E1D21"/>
<stop offset="1" stop-color="#331818"/>
</linearGradient>
<linearGradient id="paint9_linear_458_19" x1="327.076" y1="184.106" x2="343.581" y2="367.645" gradientUnits="userSpaceOnUse">
<stop offset="0.59705" stop-color="#FEFFC2"/>
<stop offset="0.781938" stop-color="#FFC526"/>
<stop offset="1" stop-color="#EBD599"/>
</linearGradient>
</defs>
</svg>
